<?xml version="1.0" encoding="utf-8"?>
<svg viewBox="0 0 512 512" xmlns="http://www.w3.org/2000/svg" xmlns:xlink="http://www.w3.org/1999/xlink" xmlns:bx="https://boxy-svg.com">
  <defs>
    <path id="path-0" d="M 173.179 304.618 C 143.885 265.118 125.939 240.066 142.096 208.703 C 149.69 193.961 176.427 169.428 185.612 156.305 C 239.912 128.306 253.204 155.513 289.52 191.829 L 298.401 204.263 C 304.449 224.422 317.523 264.599 307.282 285.08" style="fill: none;"/>
    <bx:grid x="0" y="0" width="64" height="64"/>
    <linearGradient id="color-0" bx:pinned="true">
      <stop style="stop-color: #009fff;" offset="0"/>
      <stop style="stop-color: #ec2f4b;" offset="1"/>
    </linearGradient>
    <linearGradient id="color-0-0" gradientUnits="userSpaceOnUse" x1="-875.364" y1="577.961" x2="-875.364" y2="1085.961" xlink:href="#color-0"/>
  </defs>
  <g id="g1" transform="matrix(0.768027, 0, 0, 0.768027, 928.303406, -382.968506)" style="filter: none;">
    <g id="g13">
      <path d="m -935.40625,577.96094 c 0,0 -86.60145,50.00168 -61.60156,93.30273 24.99987,43.30106 -43.30259,24.99973 -18.30269,68.30078 l 24.99995,43.30078 c 2.53439,4.38969 5.00145,7.6326 7.41211,9.96094 l 13.52539,4.92188 c 15.57634,-2.39548 29.8212,-26.9692 47.36524,3.41797 9.03447,15.64816 26.11412,19.1125 44.24414,17.15429 L -889.9375,749.2793 c -4.90881,-3.85612 -9.59461,-9.18288 -13.76953,-16.41407 l -25,-43.30078 c -21.80278,-37.76352 8.34319,-61.6089 16.41016,-67.08984 l -1.13868,-6.46094 z m 175.35156,50.66992 c -15.32131,-0.31805 -29.15043,4.1032 -36.96289,17.63476 -24.99985,43.30102 -43.30093,-25.00022 -68.30078,18.30079 l -25,43.30078 c -2.53438,4.38968 -4.1108,8.14657 -4.92187,11.39843 l 2.5,14.17383 c 9.8627,12.29176 38.26667,12.34139 20.72265,42.72852 -9.03446,15.64815 -3.49328,32.17259 7.26758,46.89453 l 53.70313,-45.06445 c 0.88509,-6.17921 3.15515,-12.89969 7.33007,-20.13086 l 25,-43.30078 c 21.80276,-37.76349 57.52654,-23.57971 66.30664,-19.33399 l 5.02539,-4.2168 21.97071,-38.05273 c 0,0 -40.93375,-23.63232 -74.64063,-24.33203 z m -365.30081,128.32812 c 0,0 2e-4,100 50,100 49.9998,0 2e-4,50 50,50 h 50.00003 c 5.06878,0 9.11029,-0.51398 12.33203,-1.4375 l 11.02539,-9.25195 c 5.71364,-14.68726 -8.44553,-39.31055 26.64258,-39.31055 18.06896,0 29.60936,-13.06005 36.97852,-29.74023 l -65.87891,-23.97656 c -5.79391,2.32309 -12.74975,3.71679 -21.09961,3.71679 h -50.00003 c -43.6056,0 -49.1813,-38.02918 -49.8945,-47.75586 l -6.166,-2.24414 z m 349.98245,0.004 c -5.06876,0 -9.1103,0.51398 -12.33203,1.4375 l -11.02539,9.25195 c -5.71362,14.68723 8.44546,39.31055 -26.64258,39.31055 -18.06892,0 -29.60742,13.06009 -36.97656,29.74023 l 65.87695,23.97657 c 5.7939,-2.32309 12.74977,-3.7168 21.09961,-3.7168 h 50 c 43.60552,0 49.18138,38.02921 49.89453,47.75586 l 6.16602,2.24414 h 43.93945 c 0,0 -3e-4,-100 -50,-100 -49.9997,0 -3e-4,-50 -50,-50 z m -110.60351,83.89648 -53.70508,45.06446 c -0.8851,6.17922 -3.15515,12.89966 -7.33008,20.13086 l -25,43.30078 c -21.80282,37.7636 -57.52458,23.57776 -66.30468,19.33203 l -5.0274,4.21875 -21.9687,38.05275 c 0,0 86.60164,49.9984 111.60156,6.6972 24.99993,-43.30109 43.30281,25.0004 68.30274,-18.30073 l 25,-43.30078 c 2.53439,-4.38969 4.10884,-8.14657 4.91992,-11.39844 l -2.49805,-14.17383 c -9.86273,-12.29179 -38.26868,-12.34129 -20.72461,-42.72851 9.03449,-15.6482 3.49527,-32.17255 -7.26562,-46.89454 z m 23.05469,4.25782 c -3.27942,-0.0586 -6.64163,0.11721 -10.04102,0.48437 l 12.17383,69.04102 c 4.90882,3.85613 9.59264,9.18286 13.76758,16.41406 l 25,43.30078 c 21.80284,37.76368 -8.34318,61.60698 -16.41016,67.08788 l 1.14062,6.4629 21.96875,38.0527 c 0,0 86.60347,-50.0015 61.60352,-93.3027 -24.99995,-43.30118 43.30073,-24.99959 18.30078,-68.30078 l -25,-43.30078 c -2.53439,-4.3897 -4.99949,-7.63259 -7.41015,-9.96094 l -13.5254,-4.92383 c -15.57638,2.39548 -29.82114,26.97124 -47.36523,-3.41601 -7.34053,-12.71417 -19.99232,-17.38462 -34.20312,-17.63867 z" style="fill-opacity: 1; fill: url('#color-0-0');" id="path1-5"/>
    </g>
  </g>
</svg>